HIERARCHY
ROOT Hips
{
	OFFSET	0.00	0.00	0.00
	CHANNELS 6 Xposition Yposition Zposition Zrotation Xrotation Yrotation
	JOINT Chest
	{
		OFFSET	 0.000000	 4.570000	 0.000000
		CHANNELS 3 Zrotation Xrotation Yrotation
		JOINT Neck
		{
			OFFSET	 0.000000	 17.620001	 0.000000
			CHANNELS 3 Zrotation Xrotation Yrotation
			JOINT Head
			{
				OFFSET	 0.000000	 5.190000	 0.000000
				CHANNELS 3 Zrotation Xrotation Yrotation
				End Site 
				{
					OFFSET	 0.000000	 4.140008	 0.000000
				}
			}
		}
		JOINT LeftCollar
		{
			OFFSET	 1.060000	 15.330000	 01.760000
			CHANNELS 3 Zrotation Xrotation Yrotation
			JOINT LeftShoulder
			{
				OFFSET	 5.00000	 0.000000	 0.000000
				CHANNELS 3 Zrotation Xrotation Yrotation
				JOINT LeftElbow
				{
					OFFSET	 0.000000	-11.90000	 0.000000
					CHANNELS 3 Zrotation Xrotation Yrotation
					JOINT LeftWrist
					{
						OFFSET	 0.000000	-9.520000	 0.000000
						CHANNELS 3 Zrotation Xrotation Yrotation
						End Site 
						{
							OFFSET	 0.000000	-7.0	 0.000000
						}
					}
				}
			}
		}
		JOINT RightCollar
		{
			OFFSET	-1.060000	 15.330000	 01.760000
			CHANNELS 3 Zrotation Xrotation Yrotation
			JOINT RightShoulder
			{
				OFFSET	-5.000000	 0.000000	 0.000000
				CHANNELS 3 Zrotation Xrotation Yrotation
				JOINT RightElbow
				{
					OFFSET	 0.000000	-11.900000	 0.000000
					CHANNELS 3 Zrotation Xrotation Yrotation
					JOINT RightWrist
					{
						OFFSET	 0.000000	-9.520000	 0.000000
						CHANNELS 3 Zrotation Xrotation Yrotation
						End Site 
						{
							OFFSET	 0.000000	-7.0	 0.000000
						}
					}
				}
			}
		}
	}
	JOINT LeftHip
	{
		OFFSET	 3.430000	 0.000000	 0.000000
		CHANNELS 3 Zrotation Xrotation Yrotation
		JOINT LeftKnee
		{
			OFFSET	 0.000000	-19.0	 0.000000
			CHANNELS 3 Zrotation Xrotation Yrotation
			JOINT LeftAnkle
			{
				OFFSET	 0.000000	-15.00000	 0.000000
				CHANNELS 3 Zrotation Xrotation Yrotation
				End Site 
				{
					OFFSET	 0.000000	-3.0	 0.000000
				}
			}
		}
	}
	JOINT RightHip
	{
		OFFSET	-3.430000	 0.000000	 0.000000
		CHANNELS 3 Zrotation Xrotation Yrotation
		JOINT RightKnee
		{
			OFFSET	 0.000000	-19.0	 0.000000
			CHANNELS 3 Zrotation Xrotation Yrotation
			JOINT RightAnkle
			{
				OFFSET	 0.000000	-15.00000	 0.000000
				CHANNELS 3 Zrotation Xrotation Yrotation
				End Site 
				{
					OFFSET	 0.000000	-3.0	 0.000000
				}
			}
		}
	}
}
MOTION
Frames: 6
Frame Time: 0.033333333
0.000000	30.115139	0.000000	-6.812591	-1.105998	91.153592	0.965248	4.364940	6.488239	-350.945983	-306.635324	-6.312253	358.006842	347.853547	-1.650444	-329.578639	-335.840993	-16.439068	-1.535083	17.286959	5.946602	125.412132	-115.163106	102.691113	1.935785	1.231375	57.650381	341.599607	-335.481534	-1.436337	-27.961318	-2.231884	77.340334	100.698910	-159.738463	126.105356	-171.561588	172.890757	101.550772	2.117246	-10.829744	18.664572	-19.377000	122.051802	19.994244	-1.465402	2.838916	15.980842	5.839517	-19.867618	3.880816	-357.965041	-303.433987	-0.349258	-340.073033	343.505039	-3.791654	
-0.117347	29.913028	0.181226	-6.131458	-2.056597	90.725448	2.174656	5.513981	6.590987	-352.384121	-306.245019	-5.387654	358.425204	347.408956	-1.702804	-330.346379	-335.705892	-14.602406	-1.892283	23.893488	5.814037	132.530487	-121.741097	107.266281	-3.194353	4.007958	57.010986	-19.389908	24.525194	0.449569	-28.356428	-11.135129	75.051619	95.464158	-166.549500	118.908085	-178.924464	174.213874	100.738075	4.850584	-19.308475	19.893742	-15.005693	128.666963	15.059585	-1.694088	0.941123	18.379475	7.280238	-13.136429	3.681042	0.025950	53.624924	0.963068	-338.995857	342.584876	-3.062420	
-0.048029	30.735534	0.065556	-5.857452	-0.522596	90.069948	1.234804	6.079223	6.438159	-356.004913	-304.250331	-3.065331	359.209529	348.478509	-0.927253	-334.109349	-335.517515	-12.085564	1.072222	32.122700	8.038864	125.968110	-127.698265	104.123875	-2.486436	3.405080	56.843876	-21.414459	24.482075	2.740841	-28.081028	-19.154300	73.393386	-269.883334	186.363646	113.934847	-179.371240	177.863162	100.277911	3.498452	-25.558139	18.811356	-13.645478	124.775900	14.132718	-0.415172	1.017380	16.212668	5.679285	-2.816026	1.668313	-3.688287	42.357219	2.454898	-338.826660	345.310039	-1.488764	
0.212162	32.159269	0.036088	-5.482228	-0.710958	88.839025	1.847397	6.559164	6.480024	-2.826898	57.603676	1.756118	0.420847	-9.329125	2.709495	-337.735633	-335.354165	-8.926131	3.857959	38.865169	11.028599	118.899848	-133.221456	100.896556	-2.412430	-1.215643	56.587248	-23.894931	24.389273	5.309094	-27.599424	-25.188728	72.285857	83.907779	178.411940	118.923412	-179.634066	179.515712	99.897442	3.903354	-28.278688	18.874756	-20.358790	112.870888	21.663114	5.809594	0.870098	15.288048	4.379675	8.270127	0.240362	-2.285393	28.329809	0.839277	25.583931	-4.406730	0.669446	
0.466390	33.741599	-0.116555	-5.338962	-0.163663	88.598773	1.651635	7.080012	6.425082	-6.567827	58.397556	4.524558	0.606440	-9.772514	3.225223	-340.611962	-335.318511	-8.517546	4.981533	43.795418	13.278208	113.896154	-134.857696	98.018813	-3.380753	-4.529601	56.240531	-25.520339	24.319740	6.417222	-27.851885	-28.169183	71.526586	79.234270	176.137351	122.085735	178.993517	-178.650546	99.451547	1.652621	-28.454144	17.358594	-67.333724	98.395320	69.741359	17.955288	2.023426	18.258267	-359.351624	-344.066098	-0.244350	-357.711805	-341.351918	-0.216092	-340.628601	-353.627816	-4.327360	
0.450372	34.749978	-0.211204	-6.397154	-1.175261	88.483363	2.427011	6.187843	6.573705	-7.409000	58.038021	5.113753	1.777432	-10.829273	4.735715	-340.959318	-335.296764	-7.805305	4.661152	44.712913	13.218905	112.763852	-134.071951	97.044507	-5.043054	-6.614843	55.778028	-26.188837	24.296606	6.532651	-25.784493	-26.112233	72.859115	77.075957	178.949749	128.496987	-189.473281	-184.341965	98.419178	1.428799	-25.342771	17.526883	-329.479683	-291.247891	-25.720455	10.613392	-5.950903	8.366228	-359.325642	-343.297073	-0.258628	-356.867812	-339.773051	-0.381483	-336.369841	-350.502868	-7.136801	
